<svg width="23" height="33" viewBox="0 0 23 33" fill="none" xmlns="http://www.w3.org/2000/svg">
<g clip-path="url(#clip0_518_1182)">
<path d="M21.4884 11.1279C21.4884 5.406 16.8498 0.767442 11.1279 0.767442C5.40599 0.767442 0.767456 5.406 0.767456 11.1279V21.872C0.767456 27.594 5.40599 32.2325 11.1279 32.2325C16.8498 32.2325 21.4884 27.594 21.4884 21.872V11.1279Z" stroke="black" stroke-width="1.53488"/>
<path d="M13 10C13 8.89543 12.1046 8 11 8C9.89543 8 9 8.89543 9 10V14C9 15.1046 9.89543 16 11 16C12.1046 16 13 15.1046 13 14V10Z" fill="black"/>
</g>
<defs>
<clipPath id="clip0_518_1182">
<rect width="23" height="33" fill="white"/>
</clipPath>
</defs>
</svg>
