<svg width="371" height="100" viewBox="0 0 371 100" fill="none" xmlns="http://www.w3.org/2000/svg">
<path d="M5.8915 47.3081C4.39433 47.444 3.32872 47.4672 2.69468 47.3775C2.05732 47.2513 1.65234 47.0487 1.47975 46.7699C1.34367 46.4877 1.26237 46.2005 1.23585 45.9084C1.19937 45.5067 1.36705 45.1233 1.73889 44.7582C2.14393 44.3532 2.9938 43.9815 4.28849 43.643C5.93509 43.1253 7.87382 42.5811 10.1047 42.0104C12.3687 41.3998 14.7822 40.8125 17.345 40.2484C19.9045 39.6478 22.4673 39.0837 25.0335 38.5562C27.6361 38.0253 30.1176 37.5791 32.4779 37.2175C34.8714 36.8161 36.9993 36.5308 38.8617 36.3617C41.3448 36.1362 43.0445 36.2028 43.9606 36.5614C44.9133 36.9167 45.4129 37.35 45.4593 37.8612C45.5024 38.3359 45.2866 38.7973 44.8118 39.2454C44.3736 39.6902 43.5702 39.9656 42.4017 40.0718C41.927 40.1149 40.8414 40.3239 39.1451 40.6988C37.4454 41.0373 35.3689 41.4835 32.9156 42.0377C30.4955 42.5519 27.9327 43.116 25.2271 43.7299C25.1573 44.988 25.0326 46.6561 24.8532 48.7342C24.6704 50.7758 24.451 53.0231 24.1952 55.4763C23.9758 57.9262 23.7399 60.396 23.4873 62.8857C23.268 65.3356 23.0519 67.6195 22.8393 69.7374C22.6631 71.852 22.5086 73.5964 22.3756 74.9707C22.2427 76.3451 22.1696 77.1617 22.1563 77.4206C22.113 78.5659 21.8623 79.4539 21.4041 80.0846C20.9791 80.6754 20.4745 80.9974 19.8902 81.0504C19.1964 81.1134 18.5856 80.8743 18.0579 80.3332C17.5633 79.7522 17.2464 78.6949 17.1071 77.1612C17.0607 76.6499 17.0807 75.654 17.1672 74.1735C17.2503 72.6564 17.3817 70.8588 17.5611 68.7808C17.7406 66.7027 17.945 64.4935 18.1743 62.1532C18.4036 59.8128 18.6379 57.5273 18.8771 55.2965C19.113 53.0292 19.3324 50.9843 19.535 49.1619C19.7344 47.3029 19.879 45.8539 19.9687 44.8148C17.1138 45.4054 14.4198 45.9446 11.8869 46.4323C9.38713 46.8802 7.38868 47.1721 5.8915 47.3081ZM47.9346 81.3756C47.1312 81.4486 46.4889 81.2676 46.0076 80.8327C45.5296 80.4343 45.2094 79.3404 45.0469 77.5511C44.8977 75.9079 44.9959 73.7451 45.3414 71.0629C45.6836 68.3441 46.2001 65.315 46.8909 61.9755C47.5818 58.636 48.3905 55.1754 49.317 51.5936C50.2403 47.9753 51.2249 44.425 52.2709 40.9428C53.3502 37.4208 54.4012 34.1959 55.424 31.2681C55.8058 30.2025 56.2341 29.4456 56.7089 28.9975C57.1837 28.5494 57.7679 28.2939 58.4617 28.2309C58.9365 28.1878 59.3514 28.2974 59.7066 28.5597C60.095 28.7821 60.3173 29.2037 60.3737 29.8245C60.3936 30.0436 60.2209 30.7772 59.8556 32.0254C59.5268 33.2702 59.0503 34.9151 58.426 36.9599C57.8382 39.0014 57.1807 41.2886 56.4534 43.8214C55.7261 46.3542 54.9922 49.0165 54.2516 51.8082C53.5111 54.6 52.8269 57.405 52.1992 60.2233C51.5682 63.0051 51.055 65.6657 50.6597 68.2052C50.2644 70.7447 50.0468 73.0104 50.0067 75.0021C50.787 73.8636 51.6685 72.4213 52.6513 70.6753C53.6341 68.9292 54.6783 67.0488 55.7839 65.0338C56.8896 63.0189 58.0152 61.0206 59.1606 59.0389C60.3061 57.0572 61.4483 55.2415 62.5871 53.5917C63.7259 51.942 64.8016 50.6109 65.8142 49.5985C66.86 48.5463 67.8028 47.9821 68.6427 47.9058C70.0303 47.7798 71.1839 48.1169 72.1033 48.917C73.056 49.6773 73.6202 51.0251 73.7959 52.9605C73.8954 54.056 73.7957 55.3905 73.4967 56.964C73.2343 58.5341 72.9055 60.184 72.5103 61.9135C72.1151 63.643 71.768 65.2944 71.4691 66.8679C71.2067 68.4381 71.1252 69.7709 71.2247 70.8664C71.3606 72.3636 71.9946 73.0608 73.1266 72.958C74.8794 72.7988 76.5974 72.2562 78.2805 71.3302C80.0002 70.4009 81.612 69.2973 83.1159 68.0194C84.6165 66.705 85.9893 65.4022 87.2343 64.1109C88.476 62.7832 89.5335 61.6563 90.4066 60.7302C91.3462 59.7245 92.1629 59.1901 92.8567 59.1271C93.7331 59.0475 94.2127 59.4642 94.2956 60.3771C94.3188 60.6327 94.2906 60.9298 94.2109 61.2684C94.1312 61.607 93.8772 62.0535 93.4489 62.6078C92.9243 63.3181 92.1623 64.2525 91.163 65.411C90.2002 66.5661 89.0614 67.8109 87.7467 69.1452C86.4685 70.4763 85.0559 71.7459 83.5088 72.9541C81.9982 74.159 80.4163 75.1862 78.763 76.0359C77.143 76.8457 75.5296 77.3236 73.9228 77.4695C71.7319 77.6684 69.9775 77.2018 68.6597 76.0697C67.3751 74.8977 66.6317 73.198 66.4294 70.9705C66.3034 69.5829 66.37 67.8832 66.6291 65.8715C66.8883 63.8598 67.247 61.7287 67.7054 59.478C68.1969 57.1875 68.6934 54.9518 69.1949 52.7708C68.0993 53.6803 66.9307 55.0014 65.689 56.7341C64.4804 58.427 63.2188 60.3456 61.904 62.49C60.5859 64.5978 59.2711 66.7422 57.9596 68.923C56.6846 71.1006 55.4329 73.1288 54.2044 75.0076C53.0092 76.8465 51.8753 78.3485 50.803 79.5136C49.7306 80.6787 48.7745 81.2994 47.9346 81.3756ZM111.394 49.3255C111.5 50.4941 111.24 51.6775 110.612 52.8758C109.981 54.0376 109.11 55.1845 107.998 56.3163C106.882 57.4117 105.634 58.4639 104.253 59.4729C102.872 60.482 101.481 61.3814 100.08 62.1714C98.6786 62.9613 97.3938 63.6118 96.2252 64.1229C96.0624 65.5736 96.0308 66.8467 96.1302 67.9422C96.1932 68.636 96.4023 69.114 96.7575 69.3763C97.1127 69.6386 97.6372 69.7382 98.331 69.6752C99.8647 69.536 101.465 69.1146 103.131 68.411C104.798 67.7074 106.486 66.8361 108.196 65.7973C109.905 64.7584 111.537 63.6714 113.091 62.5362C114.645 61.4011 116.057 60.334 117.329 59.3349C118.637 58.3325 119.722 57.516 120.586 56.8853C121.449 56.2547 122.026 55.9261 122.318 55.8996C122.757 55.8598 123.099 55.976 123.344 56.2482C123.623 56.4806 123.779 56.7794 123.812 57.1446C123.839 57.4367 123.434 58.0442 122.597 58.9669C121.797 59.8864 120.7 60.9801 119.305 62.2481C117.908 63.4795 116.331 64.764 114.574 66.1017C112.818 67.4393 110.982 68.7105 109.067 69.9154C107.188 71.1169 105.345 72.1126 103.539 72.9025C101.77 73.6891 100.155 74.1487 98.694 74.2813C96.7951 74.4537 95.2516 73.8759 94.0633 72.548C92.875 71.22 92.1449 69.0588 91.873 66.0645C91.6906 64.0561 91.7622 62.0062 92.0877 59.9148C92.4498 57.8202 93.0027 55.8002 93.7465 53.855C94.5235 51.8699 95.4117 50.0957 96.4111 48.5322C97.4437 46.929 98.5609 45.6493 99.7627 44.6934C100.961 43.701 102.163 43.15 103.368 43.0406C105.669 42.8317 107.534 43.3066 108.965 44.4653C110.395 45.624 111.205 47.2441 111.394 49.3255ZM96.9925 59.8008C98.0615 59.0042 99.1637 58.1678 100.299 57.2915C101.435 56.4153 102.477 55.529 103.427 54.6328C104.376 53.7366 105.121 52.8221 105.663 51.8894C106.237 50.9168 106.481 49.9558 106.395 49.0063C106.272 47.6552 105.481 47.046 104.02 47.1786C103.107 47.2615 102.192 47.9336 101.276 49.195C100.393 50.4165 99.5777 51.9817 98.8306 53.8904C98.0834 55.7991 97.4708 57.7693 96.9925 59.8008ZM156.799 69.7783C155.01 69.9408 153.421 69.68 152.034 68.996C150.679 68.2722 149.596 67.2845 148.783 66.0329C147.969 64.7813 147.5 63.4617 147.374 62.0741C147.108 59.1527 147.378 56.4406 148.181 53.9377C148.982 51.3983 150.064 49.1277 151.429 47.1261C152.826 45.0847 154.287 43.3321 155.811 41.8683C157.371 40.4011 158.797 39.2776 160.089 38.4976C161.413 37.6778 162.368 37.2414 162.952 37.1883C164.121 37.0822 164.758 37.6134 164.864 38.7819C164.914 39.3297 164.607 40.0019 163.943 40.7985C163.275 41.5587 162.419 42.4648 161.373 43.5171C160.327 44.5693 159.22 45.7559 158.051 47.077C156.879 48.3616 155.795 49.8039 154.799 51.4038C153.8 52.9673 153.018 54.6951 152.453 56.5872C151.886 58.4428 151.699 60.4479 151.895 62.6024C152.094 64.7933 153.088 65.8076 154.877 65.6451C156.521 65.4959 158.172 65.033 159.832 64.2564C161.529 63.4764 163.172 62.5172 164.762 61.3787C166.386 60.2004 167.933 58.9923 169.403 57.7542C170.874 56.5161 172.204 55.3461 173.392 54.2441C174.578 53.1056 175.58 52.1861 176.4 51.4858C177.22 50.7854 177.813 50.4186 178.178 50.3855C178.908 50.3192 179.31 50.6877 179.383 51.4911C179.439 52.1118 179.094 52.9716 178.347 54.0703C177.6 55.169 176.569 56.3856 175.254 57.7199C173.94 59.0543 172.462 60.4218 170.822 61.8226C169.179 63.1868 167.509 64.4613 165.812 65.6463C164.113 66.7947 162.469 67.7539 160.882 68.5239C159.329 69.254 157.968 69.6722 156.799 69.7783ZM209.456 66.2118C208.397 66.308 207.617 66.029 207.116 65.375C206.614 64.721 206.287 63.5541 206.135 61.8744C206.012 60.5232 206.024 58.8286 206.17 56.7903C206.353 54.7488 206.591 52.4997 206.883 50.0432C207.172 47.5502 207.473 44.9825 207.785 42.3401C205.833 45.5732 203.589 48.2254 201.052 50.2966C198.549 52.3279 195.697 53.765 192.497 54.6079C191.893 56.4668 191.164 58.1714 190.31 59.7216C189.457 61.2718 188.486 62.5381 187.397 63.5206C186.308 64.5031 185.125 65.0524 183.846 65.1684C182.276 65.311 180.885 64.793 179.674 63.6144C178.499 62.4325 177.8 60.6182 177.578 58.1716C177.426 56.4919 177.509 54.9748 177.828 53.6204C178.143 52.2295 178.548 51.2171 179.043 50.5831C178.409 49.2784 178.012 47.7497 177.853 45.9969C177.658 43.8424 177.978 41.8988 178.815 40.166C179.648 38.3967 180.845 36.981 182.405 35.9189C183.963 34.8203 185.69 34.1847 187.589 34.0123C189.123 33.873 190.557 34.4608 191.891 35.7755C193.226 37.0902 194.014 39.0804 194.256 41.7461C194.481 44.2292 194.294 47.026 193.692 50.1365C195.631 49.1872 197.534 47.8363 199.399 46.0838C201.302 44.3279 203.103 42.2682 204.803 39.9048C206.503 37.5414 207.998 34.9572 209.29 32.1522C209.632 31.4585 210.168 31.0784 210.899 31.0121C211.556 30.9524 212.085 31.1068 212.487 31.4754C212.922 31.8041 213.169 32.2971 213.229 32.9544C213.245 33.1369 213.192 33.7677 213.069 34.8465C212.983 35.9221 212.85 37.2964 212.67 38.9695C212.527 40.6393 212.363 42.4767 212.177 44.4817C211.991 46.4867 211.806 48.5101 211.623 50.5516C211.477 52.5899 211.372 54.4771 211.309 56.2132C212.003 54.5302 212.793 52.6912 213.68 50.6962C214.567 48.7012 215.475 46.7411 216.404 44.8158C217.367 42.8506 218.29 41.0548 219.174 39.4283C220.093 37.7984 220.913 36.4906 221.634 35.5047C222.387 34.479 223.002 33.9446 223.476 33.9015C224.353 33.8219 225.146 34.0444 225.856 34.569C226.567 35.0936 226.95 35.6663 227.007 36.287C227.083 37.1269 227.108 38.4133 227.081 40.1461C227.051 41.8425 227.004 43.7612 226.941 45.9024C226.878 48.0436 226.814 50.1847 226.751 52.3259C226.688 54.467 226.643 56.4041 226.616 58.1369C226.589 59.8698 226.614 61.1561 226.69 61.996C226.74 62.5437 226.547 63.0583 226.112 63.5396C225.677 64.0209 225.168 64.2881 224.584 64.3411C224.182 64.3776 223.823 64.2813 223.508 64.0522C223.233 63.8563 222.985 63.3633 222.766 62.5732C222.547 61.7831 222.361 60.5482 222.209 58.8684C222.06 57.2252 221.952 55.4309 221.886 53.4856C221.816 51.5038 221.785 49.5369 221.792 47.5849C221.832 45.5931 221.908 43.8005 222.021 42.2071C221.308 43.671 220.491 45.4204 219.571 47.4552C218.688 49.4867 217.755 51.578 216.772 53.7291C215.789 55.8801 214.831 57.9 213.898 59.7888C212.965 61.6775 212.11 63.2095 211.333 64.3845C210.556 65.5596 209.93 66.1687 209.456 66.2118ZM188.952 51.4505C189.264 50.0231 189.477 48.5127 189.59 46.9193C189.736 45.286 189.736 43.6661 189.59 42.0593C189.504 41.1099 189.252 40.3596 188.834 39.8085C188.415 39.2574 187.896 39.0101 187.275 39.0664C186.326 39.1526 185.419 39.5111 184.556 40.1417C183.69 40.7358 182.989 41.5358 182.455 42.5416C181.957 43.5441 181.767 44.7026 181.887 46.0172C182.036 47.6604 182.784 49.01 184.132 50.0657C185.513 51.0817 187.119 51.5433 188.952 51.4505ZM187.816 55.3643C185.323 55.4802 183.248 54.9323 181.592 53.7204C181.562 54.2018 181.53 54.6648 181.497 55.1097C181.461 55.518 181.461 55.923 181.497 56.3247C181.6 57.4567 181.864 58.3347 182.289 58.9589C182.747 59.5432 183.377 59.7989 184.181 59.7259C184.838 59.6662 185.48 59.2397 186.108 58.4464C186.735 57.6531 187.305 56.6257 187.816 55.3643ZM248.91 61.4142C247.121 61.5767 245.533 61.3159 244.145 60.6319C242.791 59.9081 241.707 58.9204 240.894 57.6688C240.081 56.4172 239.611 55.0976 239.485 53.71C239.22 50.7887 239.489 48.0765 240.293 45.5736C241.093 43.0342 242.175 40.7636 243.54 38.762C244.938 36.7206 246.398 34.968 247.922 33.5042C249.483 32.0371 250.909 30.9135 252.2 30.1335C253.525 29.3137 254.479 28.8773 255.063 28.8242C256.232 28.7181 256.869 29.2493 256.975 30.4179C257.025 30.9656 256.718 31.6378 256.054 32.4344C255.387 33.1946 254.53 34.1007 253.484 35.153C252.438 36.2052 251.331 37.3918 250.163 38.7129C248.991 39.9975 247.907 41.4398 246.911 43.0398C245.911 44.6032 245.129 46.331 244.565 48.2231C243.997 50.0788 243.811 52.0838 244.006 54.2383C244.205 56.4293 245.199 57.4435 246.989 57.281C248.632 57.1318 250.284 56.6689 251.943 55.8923C253.64 55.1123 255.283 54.1531 256.873 53.0147C258.497 51.8364 260.044 50.6282 261.515 49.3901C262.985 48.152 264.315 46.982 265.504 45.88C266.689 44.7415 267.691 43.822 268.511 43.1217C269.331 42.4213 269.924 42.0546 270.289 42.0214C271.02 41.9551 271.421 42.3236 271.494 43.127C271.55 43.7477 271.205 44.6075 270.458 45.7062C269.711 46.8049 268.68 48.0215 267.365 49.3558C266.051 50.6902 264.573 52.0577 262.933 53.4585C261.29 54.8227 259.62 56.0972 257.924 57.2822C256.224 58.4306 254.581 59.3898 252.994 60.1598C251.44 60.89 250.079 61.3081 248.91 61.4142ZM290.535 33.0588C290.641 34.2273 290.381 35.4107 289.753 36.6091C289.122 37.7709 288.251 38.9177 287.138 40.0496C286.023 41.145 284.775 42.1972 283.394 43.2062C282.012 44.2152 280.621 45.1147 279.22 45.9046C277.819 46.6946 276.535 47.3451 275.366 47.8562C275.203 49.3069 275.172 50.5799 275.271 51.6754C275.334 52.3692 275.543 52.8473 275.898 53.1096C276.254 53.3719 276.778 53.4715 277.472 53.4085C279.006 53.2692 280.606 52.8478 282.272 52.1442C283.939 51.4406 285.627 50.5694 287.337 49.5305C289.046 48.4917 290.678 47.4047 292.232 46.2695C293.785 45.1343 295.198 44.0672 296.47 43.0681C297.778 42.0657 298.863 41.2492 299.726 40.6186C300.59 39.9879 301.167 39.6594 301.459 39.6328C301.898 39.593 302.24 39.7093 302.485 39.9815C302.764 40.2139 302.92 40.5127 302.953 40.8779C302.98 41.17 302.575 41.7774 301.738 42.7002C300.938 43.6197 299.841 44.7134 298.446 45.9813C297.048 47.2128 295.471 48.4973 293.715 49.8349C291.959 51.1726 290.123 52.4438 288.208 53.6486C286.329 54.8502 284.486 55.8459 282.68 56.6358C280.911 57.4223 279.296 57.8819 277.835 58.0146C275.936 58.187 274.392 57.6092 273.204 56.2812C272.016 54.9532 271.286 52.7921 271.014 49.7977C270.832 47.7893 270.903 45.7395 271.229 43.6481C271.591 41.5535 272.144 39.5335 272.887 37.5883C273.664 35.6032 274.553 33.829 275.552 32.2655C276.585 30.6622 277.702 29.3826 278.904 28.4267C280.102 27.4342 281.304 26.8833 282.509 26.7739C284.809 26.565 286.675 27.0399 288.106 28.1986C289.536 29.3573 290.346 30.9774 290.535 33.0588ZM276.133 43.5341C277.202 42.7375 278.305 41.9011 279.44 41.0248C280.575 40.1485 281.618 39.2623 282.567 38.3661C283.517 37.4699 284.262 36.5554 284.803 35.6226C285.378 34.65 285.622 33.689 285.536 32.7396C285.413 31.3885 284.621 30.7792 283.161 30.9119C282.248 30.9948 281.333 31.6669 280.417 32.9283C279.534 34.1498 278.719 35.7149 277.971 37.6237C277.224 39.5324 276.612 41.5025 276.133 43.5341ZM302.719 72.1572C302.098 72.2135 301.586 72.0392 301.181 71.6342C300.812 71.2258 300.572 70.4008 300.459 69.1593C300.296 67.37 300.235 65.2769 300.275 62.8802C300.315 60.4834 300.434 57.9322 300.63 55.2268C300.862 52.518 301.131 49.8058 301.437 47.0904C301.779 44.3716 302.151 41.779 302.553 39.3126C302.992 36.8428 303.437 34.6486 303.889 32.7299C304.337 30.7746 304.767 29.2261 305.179 28.0842C305.627 26.9389 306.052 26.3481 306.454 26.3116C307.147 26.2486 307.713 26.3997 308.152 26.7649C308.626 27.1268 308.9 27.7094 308.973 28.5128C309.066 29.5353 308.906 31.2249 308.494 33.5818C308.079 35.9022 307.545 38.933 306.89 42.6742C307.651 40.9115 308.477 39.0692 309.371 37.1472C310.264 35.2252 311.217 33.3531 312.229 31.5307C313.239 29.6718 314.265 27.9955 315.307 26.5017C316.386 25.0047 317.454 23.7848 318.509 22.8422C319.565 21.8995 320.622 21.3801 321.681 21.2839C322.813 21.1811 323.851 21.4551 324.793 22.1059C325.733 22.7201 326.495 23.6082 327.079 24.7701C327.696 25.8922 328.071 27.1836 328.204 28.6443C328.479 31.6751 328.235 34.6611 327.471 37.6022C326.704 40.5069 325.51 43.1741 323.89 45.6039C322.303 47.9938 320.346 49.9572 318.018 51.494C315.728 53.0274 313.176 53.9218 310.365 54.1771C309.306 54.2733 308.351 54.3047 307.501 54.2714C306.652 54.2381 305.91 54.1766 305.276 54.0869C305.056 56.5368 304.862 59.0581 304.692 61.6507C304.523 64.2433 304.368 67.0003 304.228 69.9215C304.188 70.6983 304.054 71.2444 303.825 71.5597C303.599 71.9116 303.231 72.1107 302.719 72.1572ZM323.045 25.3573C322.279 25.4269 321.405 25.948 320.426 26.9206C319.483 27.8898 318.475 29.1595 317.403 30.7295C316.364 32.2598 315.321 33.956 314.275 35.8182C313.226 37.6439 312.217 39.5028 311.247 41.3949C310.278 43.287 309.388 45.043 308.578 46.6629C307.804 48.2795 307.172 49.6255 306.68 50.7011C309.522 50.3694 311.972 49.5762 314.03 48.3216C316.085 47.0305 317.803 45.4754 319.184 43.6564C320.562 41.8009 321.636 39.8441 322.407 37.786C323.21 35.688 323.747 33.688 324.016 31.7859C324.281 29.8472 324.351 28.1841 324.225 26.7965C324.132 25.774 323.739 25.2943 323.045 25.3573ZM331.134 35.5024C330.141 35.5189 329.627 34.9213 329.59 33.7096C329.6 33.4142 329.77 33.049 330.098 32.6142C330.424 32.1428 330.822 31.8673 331.294 31.7877C332.416 31.5754 333.788 31.285 335.412 30.9167C337.068 30.5086 338.886 30.049 340.864 29.538C341.067 27.7155 341.335 25.7951 341.667 23.7768C341.999 21.7585 342.391 19.79 342.842 17.8713C343.291 15.9161 343.792 14.1401 344.347 12.5434C344.901 10.9467 345.522 9.67538 346.21 8.72936C346.575 8.2912 346.915 7.98417 347.23 7.80826C347.542 7.59584 347.826 7.47802 348.082 7.45481C348.593 7.40839 349.015 7.59101 349.347 8.00268C349.715 8.41104 349.924 8.88909 349.974 9.43683C350 9.72897 349.972 10.0261 349.889 10.3281C349.345 12.4394 348.788 15.0303 348.22 18.1009C347.652 21.1715 347.054 24.521 346.427 28.1493C349.736 27.2965 353.043 26.4072 356.346 25.4813C359.649 24.5555 362.483 23.7275 364.846 22.9975C365.513 22.6423 366.048 22.649 366.45 23.0176C366.888 23.3828 367.125 23.7662 367.162 24.1679C367.208 24.6791 367.097 25.0758 366.828 25.3579C366.595 25.6368 366.341 25.8807 366.066 26.0898L366.016 26.1496C365.312 26.508 364.248 26.9544 362.824 27.4887C361.397 27.9865 359.753 28.5407 357.894 29.1514C356.032 29.7255 354.042 30.3112 351.924 30.9085C349.842 31.5025 347.776 32.0583 345.724 32.576C345.176 35.8657 344.618 39.2483 344.05 42.7239C343.515 46.1597 342.975 49.5407 342.431 52.867C342.185 54.2147 341.839 55.0745 341.395 55.4462C340.989 55.8512 340.531 56.0769 340.02 56.1233C339.436 56.1763 338.905 56.0036 338.427 55.6052C337.985 55.2035 337.849 54.3138 338.019 52.9362L340.321 33.895C338.16 34.4226 336.246 34.8357 334.58 35.1343C332.95 35.4295 331.801 35.5522 331.134 35.5024Z" fill="black"/>
</svg>
