<svg width="421" height="108" viewBox="0 0 421 108" fill="none" xmlns="http://www.w3.org/2000/svg">
<path d="M11.8915 54.3081C10.3943 54.444 9.32872 54.4672 8.69468 54.3775C8.05732 54.2513 7.65234 54.0487 7.47975 53.7699C7.34367 53.4877 7.26237 53.2005 7.23585 52.9084C7.19937 52.5067 7.36705 52.1233 7.73889 51.7582C8.14393 51.3532 8.9938 50.9815 10.2885 50.643C11.9351 50.1253 13.8738 49.5811 16.1047 49.0104C18.3687 48.3998 20.7822 47.8125 23.345 47.2484C25.9045 46.6478 28.4673 46.0837 31.0335 45.5562C33.6361 45.0253 36.1176 44.5791 38.4779 44.2175C40.8714 43.8161 42.9993 43.5308 44.8617 43.3617C47.3448 43.1362 49.0445 43.2028 49.9606 43.5614C50.9133 43.9167 51.4129 44.35 51.4593 44.8612C51.5024 45.3359 51.2866 45.7973 50.8118 46.2454C50.3736 46.6902 49.5702 46.9656 48.4017 47.0718C47.927 47.1149 46.8414 47.3239 45.1451 47.6988C43.4454 48.0373 41.3689 48.4835 38.9156 49.0377C36.4955 49.5519 33.9327 50.116 31.2271 50.7299C31.1573 51.988 31.0326 53.6561 30.8532 55.7342C30.6704 57.7758 30.451 60.0231 30.1952 62.4763C29.9758 64.9262 29.7399 67.396 29.4873 69.8857C29.268 72.3356 29.0519 74.6195 28.8393 76.7374C28.6631 78.852 28.5086 80.5964 28.3756 81.9707C28.2427 83.3451 28.1696 84.1617 28.1563 84.4206C28.113 85.5659 27.8623 86.4539 27.4041 87.0846C26.9791 87.6754 26.4745 87.9974 25.8902 88.0504C25.1964 88.1134 24.5856 87.8743 24.0579 87.3332C23.5633 86.7522 23.2464 85.6949 23.1071 84.1612C23.0607 83.6499 23.0807 82.654 23.1672 81.1735C23.2503 79.6564 23.3817 77.8588 23.5611 75.7808C23.7406 73.7027 23.945 71.4935 24.1743 69.1532C24.4036 66.8128 24.6379 64.5273 24.8771 62.2965C25.113 60.0292 25.3324 57.9843 25.535 56.1619C25.7344 54.3029 25.879 52.8539 25.9687 51.8148C23.1138 52.4054 20.4198 52.9446 17.8869 53.4323C15.3871 53.8802 13.3887 54.1721 11.8915 54.3081ZM53.9346 88.3756C53.1312 88.4486 52.4889 88.2676 52.0076 87.8327C51.5296 87.4343 51.2094 86.3404 51.0469 84.5511C50.8977 82.9079 50.9959 80.7451 51.3414 78.0629C51.6836 75.3441 52.2001 72.315 52.8909 68.9755C53.5818 65.636 54.3905 62.1754 55.317 58.5936C56.2403 54.9753 57.2249 51.425 58.2709 47.9428C59.3502 44.4208 60.4012 41.1959 61.424 38.2681C61.8058 37.2025 62.2341 36.4456 62.7089 35.9975C63.1837 35.5494 63.7679 35.2939 64.4617 35.2309C64.9365 35.1878 65.3514 35.2974 65.7066 35.5597C66.095 35.7821 66.3173 36.2037 66.3737 36.8245C66.3936 37.0436 66.2209 37.7772 65.8556 39.0254C65.5268 40.2702 65.0503 41.9151 64.426 43.9599C63.8382 46.0014 63.1807 48.2886 62.4534 50.8214C61.7261 53.3542 60.9922 56.0165 60.2516 58.8082C59.5111 61.6 58.8269 64.405 58.1992 67.2233C57.5682 70.0051 57.055 72.6657 56.6597 75.2052C56.2644 77.7447 56.0468 80.0104 56.0067 82.0021C56.787 80.8636 57.6685 79.4213 58.6513 77.6753C59.6341 75.9292 60.6783 74.0488 61.7839 72.0338C62.8896 70.0189 64.0152 68.0206 65.1606 66.0389C66.3061 64.0572 67.4483 62.2415 68.5871 60.5917C69.7259 58.942 70.8016 57.6109 71.8142 56.5985C72.86 55.5463 73.8028 54.9821 74.6427 54.9058C76.0303 54.7798 77.1839 55.1169 78.1033 55.917C79.056 56.6773 79.6202 58.0251 79.7959 59.9605C79.8954 61.056 79.7957 62.3905 79.4967 63.964C79.2343 65.5341 78.9055 67.184 78.5103 68.9135C78.1151 70.643 77.768 72.2944 77.4691 73.8679C77.2067 75.4381 77.1252 76.7709 77.2247 77.8664C77.3606 79.3636 77.9946 80.0608 79.1266 79.958C80.8794 79.7988 82.5974 79.2562 84.2805 78.3302C86.0002 77.4009 87.612 76.2973 89.1159 75.0194C90.6165 73.705 91.9893 72.4022 93.2343 71.1109C94.476 69.7832 95.5335 68.6563 96.4066 67.7302C97.3462 66.7245 98.1629 66.1901 98.8567 66.1271C99.7331 66.0475 100.213 66.4642 100.296 67.3771C100.319 67.6327 100.291 67.9298 100.211 68.2684C100.131 68.607 99.8772 69.0535 99.4489 69.6078C98.9243 70.3181 98.1623 71.2525 97.163 72.411C96.2002 73.5661 95.0614 74.8109 93.7467 76.1452C92.4685 77.4763 91.0559 78.7459 89.5088 79.9541C87.9982 81.159 86.4163 82.1862 84.763 83.0359C83.143 83.8457 81.5296 84.3236 79.9228 84.4695C77.7319 84.6684 75.9775 84.2018 74.6597 83.0697C73.3751 81.8977 72.6317 80.198 72.4294 77.9705C72.3034 76.5829 72.37 74.8832 72.6291 72.8715C72.8883 70.8598 73.247 68.7287 73.7054 66.478C74.1969 64.1875 74.6934 61.9518 75.1949 59.7708C74.0993 60.6803 72.9307 62.0014 71.689 63.7341C70.4804 65.427 69.2188 67.3456 67.904 69.49C66.5859 71.5978 65.2711 73.7422 63.9596 75.923C62.6846 78.1006 61.4329 80.1288 60.2044 82.0076C59.0092 83.8465 57.8753 85.3485 56.803 86.5136C55.7306 87.6787 54.7745 88.2994 53.9346 88.3756ZM117.394 56.3255C117.5 57.4941 117.24 58.6775 116.612 59.8758C115.981 61.0376 115.11 62.1845 113.998 63.3163C112.882 64.4117 111.634 65.4639 110.253 66.4729C108.872 67.482 107.481 68.3814 106.08 69.1714C104.679 69.9613 103.394 70.6118 102.225 71.1229C102.062 72.5736 102.031 73.8467 102.13 74.9422C102.193 75.636 102.402 76.114 102.757 76.3763C103.113 76.6386 103.637 76.7382 104.331 76.6752C105.865 76.536 107.465 76.1146 109.131 75.411C110.798 74.7074 112.486 73.8361 114.196 72.7973C115.905 71.7584 117.537 70.6714 119.091 69.5362C120.645 68.4011 122.057 67.334 123.329 66.3349C124.637 65.3325 125.722 64.516 126.586 63.8853C127.449 63.2547 128.026 62.9261 128.318 62.8996C128.757 62.8598 129.099 62.976 129.344 63.2482C129.623 63.4806 129.779 63.7794 129.812 64.1446C129.839 64.4367 129.434 65.0442 128.597 65.9669C127.797 66.8864 126.7 67.9801 125.305 69.2481C123.908 70.4795 122.331 71.764 120.574 73.1017C118.818 74.4393 116.982 75.7105 115.067 76.9154C113.188 78.1169 111.345 79.1126 109.539 79.9025C107.77 80.6891 106.155 81.1487 104.694 81.2813C102.795 81.4537 101.252 80.8759 100.063 79.548C98.875 78.22 98.1449 76.0588 97.873 73.0645C97.6906 71.0561 97.7622 69.0062 98.0877 66.9148C98.4498 64.8202 99.0027 62.8002 99.7465 60.855C100.524 58.8699 101.412 57.0957 102.411 55.5322C103.444 53.929 104.561 52.6493 105.763 51.6934C106.961 50.701 108.163 50.15 109.368 50.0406C111.669 49.8317 113.534 50.3066 114.965 51.4653C116.395 52.624 117.205 54.2441 117.394 56.3255ZM102.993 66.8008C104.062 66.0042 105.164 65.1678 106.299 64.2915C107.435 63.4153 108.477 62.529 109.427 61.6328C110.376 60.7366 111.121 59.8221 111.663 58.8894C112.237 57.9168 112.481 56.9558 112.395 56.0063C112.272 54.6552 111.481 54.046 110.02 54.1786C109.107 54.2615 108.192 54.9336 107.276 56.195C106.393 57.4165 105.578 58.9817 104.831 60.8904C104.083 62.7991 103.471 64.7693 102.993 66.8008ZM162.799 76.7783C161.01 76.9408 159.421 76.68 158.034 75.996C156.679 75.2722 155.596 74.2845 154.783 73.0329C153.969 71.7813 153.5 70.4617 153.374 69.0741C153.108 66.1527 153.378 63.4406 154.181 60.9377C154.982 58.3983 156.064 56.1277 157.429 54.1261C158.826 52.0847 160.287 50.3321 161.811 48.8683C163.371 47.4011 164.797 46.2776 166.089 45.4976C167.413 44.6778 168.368 44.2414 168.952 44.1883C170.121 44.0822 170.758 44.6134 170.864 45.7819C170.914 46.3297 170.607 47.0019 169.943 47.7985C169.275 48.5587 168.419 49.4648 167.373 50.5171C166.327 51.5693 165.22 52.7559 164.051 54.077C162.879 55.3616 161.795 56.8039 160.799 58.4038C159.8 59.9673 159.018 61.6951 158.453 63.5872C157.886 65.4428 157.699 67.4479 157.895 69.6024C158.094 71.7933 159.088 72.8076 160.877 72.6451C162.521 72.4959 164.172 72.033 165.832 71.2564C167.529 70.4764 169.172 69.5172 170.762 68.3787C172.386 67.2004 173.933 65.9923 175.403 64.7542C176.874 63.5161 178.204 62.3461 179.392 61.2441C180.578 60.1056 181.58 59.1861 182.4 58.4858C183.22 57.7854 183.813 57.4186 184.178 57.3855C184.908 57.3192 185.31 57.6877 185.383 58.4911C185.439 59.1118 185.094 59.9716 184.347 61.0703C183.6 62.169 182.569 63.3856 181.254 64.7199C179.94 66.0543 178.462 67.4218 176.822 68.8226C175.179 70.1868 173.509 71.4613 171.812 72.6463C170.113 73.7947 168.469 74.7539 166.882 75.5239C165.329 76.254 163.968 76.6722 162.799 76.7783ZM215.456 73.2118C214.397 73.308 213.617 73.029 213.116 72.375C212.614 71.721 212.287 70.5541 212.135 68.8744C212.012 67.5232 212.024 65.8286 212.17 63.7903C212.353 61.7488 212.591 59.4997 212.883 57.0432C213.172 54.5502 213.473 51.9825 213.785 49.3401C211.833 52.5732 209.589 55.2254 207.052 57.2966C204.549 59.3279 201.697 60.765 198.497 61.6079C197.893 63.4668 197.164 65.1714 196.31 66.7216C195.457 68.2718 194.486 69.5381 193.397 70.5206C192.308 71.5031 191.125 72.0524 189.846 72.1684C188.276 72.311 186.885 71.793 185.674 70.6144C184.499 69.4325 183.8 67.6182 183.578 65.1716C183.426 63.4919 183.509 61.9748 183.828 60.6204C184.143 59.2295 184.548 58.2171 185.043 57.5831C184.409 56.2784 184.012 54.7497 183.853 52.9969C183.658 50.8424 183.978 48.8988 184.815 47.166C185.648 45.3967 186.845 43.981 188.405 42.9189C189.963 41.8203 191.69 41.1847 193.589 41.0123C195.123 40.873 196.557 41.4608 197.891 42.7755C199.226 44.0902 200.014 46.0804 200.256 48.7461C200.481 51.2292 200.294 54.026 199.692 57.1365C201.631 56.1872 203.534 54.8363 205.399 53.0838C207.302 51.3279 209.103 49.2682 210.803 46.9048C212.503 44.5414 213.998 41.9572 215.29 39.1522C215.632 38.4585 216.168 38.0784 216.899 38.0121C217.556 37.9524 218.085 38.1068 218.487 38.4754C218.922 38.8041 219.169 39.2971 219.229 39.9544C219.245 40.1369 219.192 40.7677 219.069 41.8465C218.983 42.9221 218.85 44.2964 218.67 45.9695C218.527 47.6393 218.363 49.4767 218.177 51.4817C217.991 53.4867 217.806 55.5101 217.623 57.5516C217.477 59.5899 217.372 61.4771 217.309 63.2132C218.003 61.5302 218.793 59.6912 219.68 57.6962C220.567 55.7012 221.475 53.7411 222.404 51.8158C223.367 49.8506 224.29 48.0548 225.174 46.4283C226.093 44.7984 226.913 43.4906 227.634 42.5047C228.387 41.479 229.002 40.9446 229.476 40.9015C230.353 40.8219 231.146 41.0444 231.856 41.569C232.567 42.0936 232.95 42.6663 233.007 43.287C233.083 44.1269 233.108 45.4133 233.081 47.1461C233.051 48.8425 233.004 50.7612 232.941 52.9024C232.878 55.0436 232.814 57.1847 232.751 59.3259C232.688 61.467 232.643 63.4041 232.616 65.1369C232.589 66.8698 232.614 68.1561 232.69 68.996C232.74 69.5437 232.547 70.0583 232.112 70.5396C231.677 71.0209 231.168 71.2881 230.584 71.3411C230.182 71.3776 229.823 71.2813 229.508 71.0522C229.233 70.8563 228.985 70.3633 228.766 69.5732C228.547 68.7831 228.361 67.5482 228.209 65.8684C228.06 64.2252 227.952 62.4309 227.886 60.4856C227.816 58.5038 227.785 56.5369 227.792 54.5849C227.832 52.5931 227.908 50.8005 228.021 49.2071C227.308 50.671 226.491 52.4204 225.571 54.4552C224.688 56.4867 223.755 58.578 222.772 60.7291C221.789 62.8801 220.831 64.9 219.898 66.7888C218.965 68.6775 218.11 70.2095 217.333 71.3845C216.556 72.5596 215.93 73.1687 215.456 73.2118ZM194.952 58.4505C195.264 57.0231 195.477 55.5127 195.59 53.9193C195.736 52.286 195.736 50.6661 195.59 49.0593C195.504 48.1099 195.252 47.3596 194.834 46.8085C194.415 46.2574 193.896 46.0101 193.275 46.0664C192.326 46.1526 191.419 46.5111 190.556 47.1417C189.69 47.7358 188.989 48.5358 188.455 49.5416C187.957 50.5441 187.767 51.7026 187.887 53.0172C188.036 54.6604 188.784 56.01 190.132 57.0657C191.513 58.0817 193.119 58.5433 194.952 58.4505ZM193.816 62.3643C191.323 62.4802 189.248 61.9323 187.592 60.7204C187.562 61.2018 187.53 61.6648 187.497 62.1097C187.461 62.518 187.461 62.923 187.497 63.3247C187.6 64.4567 187.864 65.3347 188.289 65.9589C188.747 66.5432 189.377 66.7989 190.181 66.7259C190.838 66.6662 191.48 66.2397 192.108 65.4464C192.735 64.6531 193.305 63.6257 193.816 62.3643ZM254.91 68.4142C253.121 68.5767 251.533 68.3159 250.145 67.6319C248.791 66.9081 247.707 65.9204 246.894 64.6688C246.081 63.4172 245.611 62.0976 245.485 60.71C245.22 57.7887 245.489 55.0765 246.293 52.5736C247.093 50.0342 248.175 47.7636 249.54 45.762C250.938 43.7206 252.398 41.968 253.922 40.5042C255.483 39.0371 256.909 37.9135 258.2 37.1335C259.525 36.3137 260.479 35.8773 261.063 35.8242C262.232 35.7181 262.869 36.2493 262.975 37.4179C263.025 37.9656 262.718 38.6378 262.054 39.4344C261.387 40.1946 260.53 41.1007 259.484 42.153C258.438 43.2052 257.331 44.3918 256.163 45.7129C254.991 46.9975 253.907 48.4398 252.911 50.0398C251.911 51.6032 251.129 53.331 250.565 55.2231C249.997 57.0788 249.811 59.0838 250.006 61.2383C250.205 63.4293 251.199 64.4435 252.989 64.281C254.632 64.1318 256.284 63.6689 257.943 62.8923C259.64 62.1123 261.283 61.1531 262.873 60.0147C264.497 58.8364 266.044 57.6282 267.515 56.3901C268.985 55.152 270.315 53.982 271.504 52.88C272.689 51.7415 273.691 50.822 274.511 50.1217C275.331 49.4213 275.924 49.0546 276.289 49.0214C277.02 48.9551 277.421 49.3236 277.494 50.127C277.55 50.7477 277.205 51.6075 276.458 52.7062C275.711 53.8049 274.68 55.0215 273.365 56.3558C272.051 57.6902 270.573 59.0577 268.933 60.4585C267.29 61.8227 265.62 63.0972 263.924 64.2822C262.224 65.4306 260.581 66.3898 258.994 67.1598C257.44 67.89 256.079 68.3081 254.91 68.4142ZM296.535 40.0588C296.641 41.2273 296.381 42.4107 295.753 43.6091C295.122 44.7709 294.251 45.9177 293.138 47.0496C292.023 48.145 290.775 49.1972 289.394 50.2062C288.012 51.2152 286.621 52.1147 285.22 52.9046C283.819 53.6946 282.535 54.3451 281.366 54.8562C281.203 56.3069 281.172 57.5799 281.271 58.6754C281.334 59.3692 281.543 59.8473 281.898 60.1096C282.254 60.3719 282.778 60.4715 283.472 60.4085C285.006 60.2692 286.606 59.8478 288.272 59.1442C289.939 58.4406 291.627 57.5694 293.337 56.5305C295.046 55.4917 296.678 54.4047 298.232 53.2695C299.785 52.1343 301.198 51.0672 302.47 50.0681C303.778 49.0657 304.863 48.2492 305.726 47.6186C306.59 46.9879 307.167 46.6594 307.459 46.6328C307.898 46.593 308.24 46.7093 308.485 46.9815C308.764 47.2139 308.92 47.5127 308.953 47.8779C308.98 48.17 308.575 48.7774 307.738 49.7002C306.938 50.6197 305.841 51.7134 304.446 52.9813C303.048 54.2128 301.471 55.4973 299.715 56.8349C297.959 58.1726 296.123 59.4438 294.208 60.6486C292.329 61.8502 290.486 62.8459 288.68 63.6358C286.911 64.4223 285.296 64.8819 283.835 65.0146C281.936 65.187 280.392 64.6092 279.204 63.2812C278.016 61.9532 277.286 59.7921 277.014 56.7977C276.832 54.7893 276.903 52.7395 277.229 50.6481C277.591 48.5535 278.144 46.5335 278.887 44.5883C279.664 42.6032 280.553 40.829 281.552 39.2655C282.585 37.6622 283.702 36.3826 284.904 35.4267C286.102 34.4342 287.304 33.8833 288.509 33.7739C290.809 33.565 292.675 34.0399 294.106 35.1986C295.536 36.3573 296.346 37.9774 296.535 40.0588ZM282.133 50.5341C283.202 49.7375 284.305 48.9011 285.44 48.0248C286.575 47.1485 287.618 46.2623 288.567 45.3661C289.517 44.4699 290.262 43.5554 290.803 42.6226C291.378 41.65 291.622 40.689 291.536 39.7396C291.413 38.3885 290.621 37.7792 289.161 37.9119C288.248 37.9948 287.333 38.6669 286.417 39.9283C285.534 41.1498 284.719 42.7149 283.971 44.6237C283.224 46.5324 282.612 48.5025 282.133 50.5341ZM308.719 79.1572C308.098 79.2135 307.586 79.0392 307.181 78.6342C306.812 78.2258 306.572 77.4008 306.459 76.1593C306.296 74.37 306.235 72.2769 306.275 69.8802C306.315 67.4834 306.434 64.9322 306.63 62.2268C306.862 59.518 307.131 56.8058 307.437 54.0904C307.779 51.3716 308.151 48.779 308.553 46.3126C308.992 43.8428 309.437 41.6486 309.889 39.7299C310.337 37.7746 310.767 36.2261 311.179 35.0842C311.627 33.9389 312.052 33.3481 312.454 33.3116C313.147 33.2486 313.713 33.3997 314.152 33.7649C314.626 34.1268 314.9 34.7094 314.973 35.5128C315.066 36.5353 314.906 38.2249 314.494 40.5818C314.079 42.9022 313.545 45.933 312.89 49.6742C313.651 47.9115 314.477 46.0692 315.371 44.1472C316.264 42.2252 317.217 40.3531 318.229 38.5307C319.239 36.6718 320.265 34.9955 321.307 33.5017C322.386 32.0047 323.454 30.7848 324.509 29.8422C325.565 28.8995 326.622 28.3801 327.681 28.2839C328.813 28.1811 329.851 28.4551 330.793 29.1059C331.733 29.7201 332.495 30.6082 333.079 31.7701C333.696 32.8922 334.071 34.1836 334.204 35.6443C334.479 38.6751 334.235 41.6611 333.471 44.6022C332.704 47.5069 331.51 50.1741 329.89 52.6039C328.303 54.9938 326.346 56.9572 324.018 58.494C321.728 60.0274 319.176 60.9218 316.365 61.1771C315.306 61.2733 314.351 61.3047 313.501 61.2714C312.652 61.2381 311.91 61.1766 311.276 61.0869C311.056 63.5368 310.862 66.0581 310.692 68.6507C310.523 71.2433 310.368 74.0003 310.228 76.9215C310.188 77.6983 310.054 78.2444 309.825 78.5597C309.599 78.9116 309.231 79.1107 308.719 79.1572ZM329.045 32.3573C328.279 32.4269 327.405 32.948 326.426 33.9206C325.483 34.8898 324.475 36.1595 323.403 37.7295C322.364 39.2598 321.321 40.956 320.275 42.8182C319.226 44.6439 318.217 46.5028 317.247 48.3949C316.278 50.287 315.388 52.043 314.578 53.6629C313.804 55.2795 313.172 56.6255 312.68 57.7011C315.522 57.3694 317.972 56.5762 320.03 55.3216C322.085 54.0305 323.803 52.4754 325.184 50.6564C326.562 48.8009 327.636 46.8441 328.407 44.786C329.21 42.688 329.747 40.688 330.016 38.7859C330.281 36.8472 330.351 35.1841 330.225 33.7965C330.132 32.774 329.739 32.2943 329.045 32.3573ZM337.134 42.5024C336.141 42.5189 335.627 41.9213 335.59 40.7096C335.6 40.4142 335.77 40.049 336.098 39.6142C336.424 39.1428 336.822 38.8673 337.294 38.7877C338.416 38.5754 339.788 38.285 341.412 37.9167C343.068 37.5086 344.886 37.049 346.864 36.538C347.067 34.7155 347.335 32.7951 347.667 30.7768C347.999 28.7585 348.391 26.79 348.842 24.8713C349.291 22.9161 349.792 21.1401 350.347 19.5434C350.901 17.9467 351.522 16.6754 352.21 15.7294C352.575 15.2912 352.915 14.9842 353.23 14.8083C353.542 14.5958 353.826 14.478 354.082 14.4548C354.593 14.4084 355.015 14.591 355.347 15.0027C355.715 15.411 355.924 15.8891 355.974 16.4368C356 16.729 355.972 17.0261 355.889 17.3281C355.345 19.4394 354.788 22.0303 354.22 25.1009C353.652 28.1715 353.054 31.521 352.427 35.1493C355.736 34.2965 359.043 33.4072 362.346 32.4813C365.649 31.5555 368.483 30.7275 370.846 29.9975C371.513 29.6423 372.048 29.649 372.45 30.0176C372.888 30.3828 373.125 30.7662 373.162 31.1679C373.208 31.6791 373.097 32.0758 372.828 32.3579C372.595 32.6368 372.341 32.8807 372.066 33.0898L372.016 33.1496C371.312 33.508 370.248 33.9544 368.824 34.4887C367.397 34.9865 365.753 35.5407 363.894 36.1514C362.032 36.7255 360.042 37.3112 357.924 37.9085C355.842 38.5025 353.776 39.0583 351.724 39.576C351.176 42.8657 350.618 46.2483 350.05 49.7239C349.515 53.1597 348.975 56.5407 348.431 59.867C348.185 61.2147 347.839 62.0745 347.395 62.4462C346.989 62.8512 346.531 63.0769 346.02 63.1233C345.436 63.1763 344.905 63.0036 344.427 62.6052C343.985 62.2035 343.849 61.3138 344.019 59.9362L346.321 40.895C344.16 41.4226 342.246 41.8357 340.58 42.1343C338.95 42.4295 337.801 42.5522 337.134 42.5024Z" fill="black"/>
<path d="M8 104L419 62" stroke="black" stroke-width="2.5" stroke-linecap="round"/>
</svg>
